<?xml version="1.0" encoding="UTF-8"?>
<svg id="Layer_2" data-name="Layer 2" xmlns="http://www.w3.org/2000/svg" width="64" height="39.88" viewBox="0 0 64 39.88">
  <defs>
    <style>
      .cls-1 {
        fill: #257c96;
        stroke-width: 0px;
      }
    </style>
  </defs>
  <g id="design">
    <g>
      <path class="cls-1" d="m64,4.21c-1.6,0-2.43-.81-3.09-1.46-.58-.57-.97-.95-1.83-.95s-1.25.38-1.83.95c-.67.65-1.49,1.46-3.09,1.46s-2.43-.81-3.09-1.46c-.58-.57-.97-.95-1.83-.95s-1.25.38-1.83.95c-.67.65-1.49,1.46-3.09,1.46s-2.43-.81-3.09-1.46c-.58-.57-.97-.95-1.83-.95s-1.25.38-1.83.95c-.67.65-1.49,1.46-3.09,1.46s-2.43-.81-3.09-1.46c-.58-.57-.97-.95-1.83-.95s-1.25.38-1.83.95c-.67.65-1.49,1.46-3.09,1.46s-2.43-.81-3.09-1.46c-.58-.57-.97-.95-1.83-.95s-1.25.38-1.83.95c-.67.65-1.49,1.46-3.09,1.46s-2.43-.81-3.09-1.46c-.58-.57-.97-.95-1.83-.95s-1.25.38-1.83.95c-.67.65-1.49,1.46-3.09,1.46s-2.43-.81-3.09-1.46c-.58-.57-.97-.95-1.83-.95V0c1.6,0,2.43.81,3.09,1.46.58.57.97.95,1.83.95s1.25-.38,1.83-.95c.67-.65,1.49-1.46,3.09-1.46s2.43.81,3.09,1.46c.58.57.97.95,1.83.95s1.25-.38,1.83-.95c.67-.65,1.49-1.46,3.09-1.46s2.43.81,3.09,1.46c.58.57.97.95,1.83.95s1.25-.38,1.83-.95c.67-.65,1.49-1.46,3.09-1.46s2.43.81,3.09,1.46c.58.57.97.95,1.83.95s1.25-.38,1.83-.95c.67-.65,1.49-1.46,3.09-1.46s2.43.81,3.09,1.46c.58.57.97.95,1.83.95s1.25-.38,1.83-.95c.67-.65,1.49-1.46,3.09-1.46s2.43.81,3.09,1.46c.58.57.97.95,1.83.95s1.25-.38,1.83-.95c.67-.65,1.49-1.46,3.09-1.46s2.43.81,3.09,1.46c.58.57.97.95,1.83.95v1.81Z"/>
      <path class="cls-1" d="m64,22.05c-1.6,0-2.43-.81-3.09-1.46-.58-.57-.97-.95-1.83-.95s-1.25.38-1.83.95c-.67.65-1.49,1.46-3.09,1.46s-2.43-.81-3.09-1.46c-.58-.57-.97-.95-1.83-.95s-1.25.38-1.83.95c-.67.65-1.49,1.46-3.09,1.46s-2.43-.81-3.09-1.46c-.58-.57-.97-.95-1.83-.95s-1.25.38-1.83.95c-.67.65-1.49,1.46-3.09,1.46s-2.43-.81-3.09-1.46c-.58-.57-.97-.95-1.83-.95s-1.25.38-1.83.95c-.67.65-1.49,1.46-3.09,1.46s-2.43-.81-3.09-1.46c-.58-.57-.97-.95-1.83-.95s-1.25.38-1.83.95c-.67.65-1.49,1.46-3.09,1.46s-2.43-.81-3.09-1.46c-.58-.57-.97-.95-1.83-.95s-1.25.38-1.83.95c-.67.65-1.49,1.46-3.09,1.46s-2.43-.81-3.09-1.46c-.58-.57-.97-.95-1.83-.95v-1.81c1.6,0,2.43.81,3.09,1.46.58.57.97.95,1.83.95s1.25-.38,1.83-.95c.67-.65,1.49-1.46,3.09-1.46s2.43.81,3.09,1.46c.58.57.97.95,1.83.95s1.25-.38,1.83-.95c.67-.65,1.49-1.46,3.09-1.46s2.43.81,3.09,1.46c.58.57.97.95,1.83.95s1.25-.38,1.83-.95c.67-.65,1.49-1.46,3.09-1.46s2.43.81,3.09,1.46c.58.57.97.95,1.83.95s1.25-.38,1.83-.95c.67-.65,1.49-1.46,3.09-1.46s2.43.81,3.09,1.46c.58.57.97.95,1.83.95s1.25-.38,1.83-.95c.67-.65,1.49-1.46,3.09-1.46s2.43.81,3.09,1.46c.58.57.97.95,1.83.95s1.25-.38,1.83-.95c.67-.65,1.49-1.46,3.09-1.46s2.43.81,3.09,1.46c.58.57.97.95,1.83.95v1.81Z"/>
      <path class="cls-1" d="m64,39.88c-1.6,0-2.43-.81-3.09-1.46-.58-.57-.97-.95-1.83-.95s-1.25.38-1.83.95c-.67.65-1.49,1.46-3.09,1.46s-2.43-.81-3.09-1.46c-.58-.57-.97-.95-1.83-.95s-1.25.38-1.83.95c-.67.65-1.49,1.46-3.09,1.46s-2.43-.81-3.09-1.46c-.58-.57-.97-.95-1.83-.95s-1.25.38-1.83.95c-.67.65-1.49,1.46-3.09,1.46s-2.43-.81-3.09-1.46c-.58-.57-.97-.95-1.83-.95s-1.25.38-1.83.95c-.67.65-1.49,1.46-3.09,1.46s-2.43-.81-3.09-1.46c-.58-.57-.97-.95-1.83-.95s-1.25.38-1.83.95c-.67.65-1.49,1.46-3.09,1.46s-2.43-.81-3.09-1.46c-.58-.57-.97-.95-1.83-.95s-1.25.38-1.83.95c-.67.65-1.49,1.46-3.09,1.46s-2.43-.81-3.09-1.46c-.58-.57-.97-.95-1.83-.95v-1.81c1.6,0,2.43.81,3.09,1.46.58.57.97.95,1.83.95s1.25-.38,1.83-.95c.67-.65,1.49-1.46,3.09-1.46s2.43.81,3.09,1.46c.58.57.97.95,1.83.95s1.25-.38,1.83-.95c.67-.65,1.49-1.46,3.09-1.46s2.43.81,3.09,1.46c.58.57.97.95,1.83.95s1.25-.38,1.83-.95c.67-.65,1.49-1.46,3.09-1.46s2.43.81,3.09,1.46c.58.57.97.95,1.83.95s1.25-.38,1.83-.95c.67-.65,1.49-1.46,3.09-1.46s2.43.81,3.09,1.46c.58.57.97.95,1.83.95s1.25-.38,1.83-.95c.67-.65,1.49-1.46,3.09-1.46s2.43.81,3.09,1.46c.58.57.97.95,1.83.95s1.25-.38,1.83-.95c.67-.65,1.49-1.46,3.09-1.46s2.43.81,3.09,1.46c.58.57.97.95,1.83.95v1.81Z"/>
    </g>
  </g>
</svg>